<?xml version="1.0" encoding="UTF-8"?> <svg xmlns="http://www.w3.org/2000/svg" width="101" height="61" viewBox="0 0 101 61" fill="none"><g clip-path="url(#clip0_484_68)"><path d="M28.4629 22.1541C28.4629 23.4094 28.5973 24.4271 28.8339 25.1737C29.1321 26.0135 29.4913 26.8299 29.9087 27.6162C30.058 27.8488 30.1394 28.1192 30.1437 28.3965C30.1437 28.7358 29.9421 29.0752 29.5055 29.4145L27.3893 30.8394C27.0871 31.043 26.7845 31.1446 26.5161 31.1446C26.1801 31.1446 25.8441 30.9751 25.5081 30.6695C25.0555 30.1784 24.6505 29.6445 24.2989 29.0752C23.9629 28.4985 23.6269 27.8539 23.2575 27.0736C20.6361 30.1948 17.3437 31.7554 13.3804 31.7554C10.5588 31.7554 8.30946 30.941 6.66038 29.3125C5.0113 27.684 4.1748 25.513 4.1748 22.7986C4.1748 19.9148 5.18239 17.5739 7.23137 15.8096C9.28036 14.0454 12.0013 13.1635 15.4615 13.1635C16.6035 13.1635 17.7793 13.2651 19.0223 13.435C20.2653 13.6049 21.5417 13.876 22.8853 14.1812V11.7045C22.8853 9.12629 22.3493 7.32835 21.3063 6.27657C20.2323 5.22479 18.4183 4.71597 15.8326 4.71597C14.6101 4.71596 13.3921 4.864 12.2046 5.15692C10.9697 5.45387 9.75728 5.8393 8.57661 6.3103C8.19461 6.48299 7.80184 6.63029 7.40082 6.75124C7.16541 6.81911 6.99762 6.85326 6.86487 6.85326C6.39447 6.85326 6.15947 6.51391 6.15947 5.80148V4.13886C6.15947 3.59756 6.22667 3.18909 6.39447 2.95176C6.56226 2.71442 6.86487 2.47666 7.33527 2.23933C8.51106 1.62863 9.92185 1.11967 11.5676 0.712452C13.2126 0.271503 14.9594 0.0678922 16.8068 0.0678922C20.8058 0.0678922 23.7267 0.983933 25.6079 2.81602C27.4553 4.6481 28.3953 7.42995 28.3953 11.162V22.1545L28.4629 22.1541ZM14.825 27.3109C15.9336 27.3109 17.0756 27.1073 18.2847 26.7001C19.4939 26.2929 20.5691 25.5467 21.4761 24.5291C22.0121 23.8845 22.4165 23.1717 22.6181 22.3577C22.8197 21.5436 22.9533 20.5597 22.9533 19.4059V17.9811C21.9341 17.7307 20.9018 17.5382 19.8613 17.4044C18.814 17.2701 17.7594 17.2021 16.7037 17.2008C14.4527 17.2008 12.8069 17.6417 11.6983 18.5578C10.5897 19.4738 10.0525 20.7646 10.0525 22.4593C10.0525 24.054 10.4553 25.2415 11.2951 26.0556C12.1015 26.9037 13.2773 27.3109 14.8225 27.3109H14.825ZM41.799 30.9751C41.1942 30.9751 40.791 30.8731 40.5209 30.6358C40.2526 30.4322 40.0172 29.9571 39.8156 29.3125L31.9231 3.0875C31.7215 2.40879 31.6204 1.96784 31.6204 1.73009C31.6204 1.18879 31.8892 0.88192 32.4268 0.88192H35.7188C36.357 0.88192 36.7936 0.983933 37.029 1.22127C37.2974 1.42488 37.499 1.89997 37.7006 2.54453L43.3442 25.0038L48.5845 2.54453C48.7523 1.86583 48.9556 1.42488 49.2227 1.22127C49.4899 1.01766 49.9615 0.88192 50.5663 0.88192H53.2551C53.8933 0.88192 54.3299 0.983933 54.5987 1.22127C54.8675 1.42488 55.1029 1.89997 55.2369 2.54453L60.5428 25.2744L66.3559 2.5437C66.5575 1.865 66.7924 1.42405 67.0279 1.22044C67.2966 1.01683 67.7332 0.881087 68.3376 0.881087H71.4618C71.9978 0.881087 72.3016 1.15257 72.3016 1.72926C72.3016 1.89914 72.2678 2.06861 72.2344 2.27055C72.182 2.55995 72.1033 2.84387 71.9994 3.11873L63.902 29.3466C63.7003 30.0251 63.4652 30.466 63.1966 30.6695C62.9278 30.8731 62.4912 31.0088 61.9186 31.0088H59.0298C58.3912 31.0088 57.9546 30.9072 57.6858 30.6695C57.417 30.4317 57.1837 29.9912 57.048 29.3133L51.8427 7.42995L46.6695 29.2788C46.5018 29.9571 46.2985 30.3984 46.0313 30.6358C45.7642 30.8731 45.2926 30.9751 44.6878 30.9751H41.799ZM84.9637 31.8912C83.2215 31.893 81.4852 31.688 79.7905 31.2803C78.1109 30.8731 76.8007 30.4322 75.9275 29.9233C75.3916 29.6181 75.0205 29.2788 74.8861 28.9732C74.7554 28.6735 74.6869 28.35 74.6849 28.0225V26.2933C74.6849 25.5805 74.9538 25.2415 75.4575 25.2415C75.6633 25.2421 75.8675 25.2765 76.0623 25.3431C76.2639 25.411 76.5661 25.5467 76.9021 25.6825C78.0886 26.2095 79.3271 26.6076 80.5969 26.87C81.9132 27.1397 83.2528 27.276 84.5959 27.2768C86.7125 27.2768 88.3583 26.9021 89.5019 26.1576C90.6456 25.4131 91.2487 24.3255 91.2487 22.9344C91.2487 21.9846 90.9465 21.2043 90.3417 20.561C89.7369 19.9177 88.5949 19.3393 86.9492 18.7968L82.0782 17.2699C79.626 16.4896 77.8124 15.3362 76.7038 13.8093C75.5919 12.3154 75.023 10.6532 75.023 8.88895C75.023 7.46381 75.3253 6.20842 75.93 5.12277C76.5298 4.03144 77.3545 3.08281 78.3484 2.34092C79.3564 1.56062 80.4984 0.983933 81.842 0.576711C83.1855 0.169489 84.5943 2.1871e-05 86.0718 2.1871e-05C86.8242 -0.00559533 87.5761 0.0397533 88.3224 0.135762C89.095 0.23736 89.8004 0.3731 90.5075 0.510507C91.1791 0.68039 91.8177 0.849858 92.422 1.0518C93.0264 1.25375 93.4972 1.45903 93.8328 1.66222C94.3032 1.9337 94.6392 2.20352 94.8408 2.51039C95.0426 2.78187 95.1433 3.15509 95.143 3.63004V5.22479C95.143 5.93722 94.8742 6.3103 94.3704 6.3103C94.1016 6.3103 93.665 6.17455 93.0924 5.90307C91.1781 5.02118 89.0285 4.58023 86.6437 4.58023C84.7287 4.58023 83.2173 4.88543 82.1759 5.52999C81.1345 6.17455 80.5969 7.15847 80.5969 8.5496C80.5969 9.49937 80.9329 10.3138 81.6049 10.9584C82.2769 11.6029 83.5195 12.2492 85.3001 12.8242L90.0709 14.3511C92.4892 15.1314 94.2348 16.2169 95.2774 17.608C96.3201 18.9991 96.8226 20.5935 96.8226 22.3577C96.8226 23.815 96.5204 25.1395 95.9494 26.2933C95.3446 27.4467 94.5382 28.4643 93.4972 29.2788C92.4558 30.1269 91.2129 30.7361 89.7683 31.1787C88.2569 31.6534 86.6762 31.8912 84.9649 31.8912H84.9637Z" fill="#252F3E"></path><path fill-rule="evenodd" clip-rule="evenodd" d="M91.3124 48.3794C80.2611 56.6238 64.204 61 50.3979 61C31.0492 61 13.6152 53.7736 0.447246 41.7631C-0.593736 40.8133 0.346652 39.5242 1.58965 40.2703C15.8323 48.6167 33.4008 53.6716 51.5737 53.6716C63.8346 53.6716 77.3047 51.0934 89.7 45.802C91.5478 44.9526 93.1264 47.022 91.3124 48.3794Z" fill="#FF9900"></path><path fill-rule="evenodd" clip-rule="evenodd" d="M95.9145 43.0869C94.5037 41.2548 86.5761 42.2046 82.9815 42.646C81.9068 42.7817 81.739 41.8315 82.7132 41.1191C89.0283 36.6409 99.408 37.93 100.617 39.4227C101.826 40.9496 100.281 51.4329 94.3693 56.4528C93.4623 57.2331 92.5891 56.8275 92.9919 55.8082C94.3355 52.4505 97.3265 44.8861 95.9145 43.0869Z" fill="#FF9900"></path></g><defs><clipPath id="clip0_484_68"><rect width="101" height="61" fill="white"></rect></clipPath></defs></svg> 