<?xml version="1.0" encoding="UTF-8"?> <svg xmlns="http://www.w3.org/2000/svg" xmlns:xlink="http://www.w3.org/1999/xlink" version="1.1" x="0px" y="0px" viewBox="0 0 800 150" style="enable-background:new 0 0 800 150;" xml:space="preserve"> <style type="text/css"> .st0{fill:#FFFFFF;} .st1{clip-path:url(#SVGID_00000163038949970849304200000016322286004831476358_);} .st2{fill:#FFFFFF;filter:url(#Adobe_OpacityMaskFilter);} .st3{mask:url(#mask0_00000088830658415109191330000016602440470357295267_);} .st4{fill:url(#SVGID_00000080184087029689186460000012297927736908829886_);} .st5{fill-opacity:0.24;} .st6{fill-opacity:0.32;} .st7{fill:url(#SVGID_00000129193317067754220870000009232434704326376844_);} .st8{opacity:0.5;fill:url(#SVGID_00000103263860026759968890000001832193989705752726_);enable-background:new ;} .st9{opacity:0.5;fill:#B0ADFF;enable-background:new ;} .st10{fill:none;stroke:#FFFFFF;stroke-width:3;stroke-miterlimit:10;} .st11{fill:#F05125;} .st12{fill:#7EBB42;} .st13{fill:#FDB813;} .st14{fill:#32A0DA;} </style> <g id="Layer_3"> </g> <g id="Layer_2"> <g> <path class="st0" d="M490.3,54.5c0-4.7-3-8.9-7.4-10.5L418,20.8c-2.9-1-6,1.1-6,4.2v35.3c0,1.9,1.2,3.6,3,4.2L444,74.9 c2.9,1,6-1.1,6-4.2V50.4c0-1.6,1.6-2.6,3-2.1l7.6,2.9c4.4,1.6,7.2,5.8,7.2,10.5v8.8l-32.9,12c-1.8,0.6-2.9,2.3-2.9,4.2v35.2 c0,3.1,3.1,5.3,6,4.2l44.8-16.4c4.4-1.6,7.4-5.8,7.4-10.5L490.3,54.5z"></path> <g> <defs> <rect id="SVGID_1_" x="398.5" y="19.8" width="107.4" height="107.4"></rect> </defs> <clipPath id="SVGID_00000090979957088599023410000001015879168288586386_"> <use xlink:href="#SVGID_1_" style="overflow:visible;"></use> </clipPath> <g style="clip-path:url(#SVGID_00000090979957088599023410000001015879168288586386_);"> <defs> <filter id="Adobe_OpacityMaskFilter" filterUnits="userSpaceOnUse" x="412" y="18.7" width="78.3" height="111.9"> <feColorMatrix type="matrix" values="1 0 0 0 0 0 1 0 0 0 0 0 1 0 0 0 0 0 1 0"></feColorMatrix> </filter> </defs> <mask maskUnits="userSpaceOnUse" x="412" y="18.7" width="78.3" height="111.9" id="mask0_00000088830658415109191330000016602440470357295267_"> <path class="st2" d="M490.3,54.5c0-4.7-3-8.9-7.4-10.5L418,20.8c-2.9-1-6,1.1-6,4.2v35.3c0,1.9,1.2,3.6,3,4.2L444,74.9 c2.9,1,6-1.1,6-4.2V50.4c0-1.6,1.6-2.6,3-2.1l7.6,2.9c4.4,1.6,7.2,5.8,7.2,10.5v8.8l-32.9,12c-1.8,0.6-2.9,2.3-2.9,4.2v35.2 c0,3.1,3.1,5.3,6,4.2l44.8-16.4c4.4-1.6,7.4-5.8,7.4-10.5L490.3,54.5z"></path> </mask> <g class="st3"> <linearGradient id="SVGID_00000008851359255948539600000017037169965556296584_" gradientUnits="userSpaceOnUse" x1="583.7449" y1="574.035" x2="604.5746" y2="519.5101" gradientTransform="matrix(1 0 0 -1 -146 594)"> <stop offset="0" style="stop-color:#0B53CE"></stop> <stop offset="1" style="stop-color:#7252AA"></stop> </linearGradient> <path style="fill:url(#SVGID_00000008851359255948539600000017037169965556296584_);" d="M412,18.7l78.3,28v38.4 c0,3.1-3.1,5.3-6,4.2l-16.4-5.9V61.7c0-4.7-2.9-8.8-7.3-10.5l-7.6-2.9c-1.5-0.5-3,0.5-3,2.1V77l-38-13.6V18.7z"></path> <g> <path class="st5" d="M490.3,54.9L490.3,54.9c0,4.7-2.9,8.9-7.4,10.5L432.1,84v44.8l58.2-21.3V54.9z"></path> </g> <g> <path class="st6" d="M490.3,56.7L490.3,56.7c0,4.7-2.9,8.9-7.4,10.5l-50.8,18.6v44.8l58.2-21.3V56.7z"></path> </g> <linearGradient id="SVGID_00000127043855752010745290000004871926785543783597_" gradientUnits="userSpaceOnUse" x1="607.2173" y1="469.5824" x2="607.2173" y2="534.575" gradientTransform="matrix(1 0 0 -1 -146 594)"> <stop offset="0" style="stop-color:#2266E3"></stop> <stop offset="1" style="stop-color:#AE7FE2"></stop> </linearGradient> <path style="fill:url(#SVGID_00000127043855752010745290000004871926785543783597_);" d="M490.3,54.5L490.3,54.5 c0,4.7-2.9,8.9-7.4,10.5l-50.8,18.6v44.8l58.2-21.3V54.5z"></path> <linearGradient id="SVGID_00000044898311468435483980000017085705237189572510_" gradientUnits="userSpaceOnUse" x1="636.3132" y1="502.5865" x2="614.0173" y2="502.5865" gradientTransform="matrix(1 0 0 -1 -146 594)"> <stop offset="0" style="stop-color:#94B9FF"></stop> <stop offset="0.2878" style="stop-color:#94B9FF;stop-opacity:0.5236"></stop> <stop offset="1" style="stop-color:#538FFF;stop-opacity:0"></stop> </linearGradient> <path style="opacity:0.5;fill:url(#SVGID_00000044898311468435483980000017085705237189572510_);enable-background:new ;" d=" M490.3,54.5L490.3,54.5c0,4.7-2.9,8.9-7.4,10.5l-50.8,18.6v44.8l58.2-21.3V54.5z"></path> <path class="st9" d="M467.9,70.5L450,77.1l0,26.3c0,1.6,1.6,2.6,3,2.1l7.6-2.9c4.4-1.6,7.2-5.8,7.2-10.5V70.5z"></path> </g> </g> </g> </g> <g> <path class="st0" d="M506.5,89.8c0-9,0-17.9,0-26.9c0.3,0,0.6-0.1,0.8-0.1c2.6,0,5.2,0,7.8,0c2.4,0,4.8,0.4,7.1,1.3 c3.9,1.6,6,4.6,6.7,8.7c0.4,2.3,0.4,4.5-0.1,6.8c-1.2,4.9-4.3,8-9.1,9.5c-1.6,0.5-3.2,0.8-4.9,0.8c-2.5,0-5.1,0-7.6,0 C507,89.9,506.8,89.8,506.5,89.8z M511,66.8c0,6.4,0,12.7,0,19c0.1,0.1,0.2,0.1,0.3,0.1c2.1,0,4.2,0.2,6.3-0.3 c3.3-0.8,5.6-2.8,6.5-6.2c0.5-1.9,0.6-3.9,0.2-5.8c-0.6-3.8-3-6.2-6.8-6.8c-2-0.3-4.1-0.2-6.1-0.2C511.2,66.7,511.1,66.7,511,66.8 z"></path> <path class="st0" d="M600.3,89.8c-1.5,0-2.9,0-4.3,0c0-6.4,0-12.7,0-19.2c1.4,0,2.8,0,4.3,0c0,0.9,0,1.7,0,2.4 c0.1,0,0.1,0.1,0.2,0.1c0.2-0.2,0.3-0.4,0.5-0.5c1.9-2.2,4.3-3,7.1-2.3c1.6,0.4,2.8,1.4,3.5,2.8c0.1,0.2,0.2,0.3,0.3,0.5 c0,0,0.1,0,0.2,0.1c0.2-0.2,0.4-0.4,0.5-0.7c2.1-3.1,6-3.5,8.7-2.4c1.4,0.6,2.3,1.6,2.8,3c0.5,1.2,0.7,2.4,0.7,3.7c0,4,0,8,0,12 c0,0.1,0,0.2-0.1,0.4c-1.4,0-2.7,0-4.2,0c0-0.3-0.1-0.7-0.1-1c0-3.1,0-6.3,0-9.4c0-1.2-0.2-2.4-0.4-3.5c-0.6-2.8-4.2-3.1-5.8-1.3 c-1.2,1.4-1.7,3-1.7,4.8c0,3.1,0,6.3,0,9.4c0,0.3,0,0.7,0,1.1c-1.5,0-2.8,0-4.3,0c0-0.4,0-0.7,0-1c0-3.1,0-6.2,0-9.3 c0-1.2-0.1-2.4-0.4-3.5c-0.4-1.3-1.3-2.2-2.7-2.4c-1.5-0.2-2.7,0.3-3.5,1.5c-0.7,1-1.1,2.1-1.2,3.2c-0.1,0.9,0,1.9,0,2.8 c0,2.5,0,5.1,0,7.6C600.3,89,600.3,89.4,600.3,89.8z"></path> <path class="st0" d="M710.4,75.4c0.2-0.1,0.3-0.3,0.4-0.4c1-1.2,2.3-1.9,3.8-2.2c1.7-0.3,3.3-0.1,4.9,0.5c1.7,0.7,2.9,2,3.6,3.7 c1.1,2.8,1.1,5.6-0.1,8.3c-1.8,4.2-6.1,5.5-9.5,4.9c-3.6-0.6-5.6-2.9-6.8-6.1c-0.7-2-0.9-4.1-0.9-6.2c0-3.3,0.5-6.5,2-9.4 c1.4-2.8,3.6-4.9,6.7-5.8c1.7-0.5,3.4-0.5,5.1-0.3c0.7,0.1,1.3,0.3,2,0.4c0.4,0.1,0.6,0.3,0.6,0.7c0,1.1,0,2.1,0,3.4 c-0.4-0.2-0.7-0.3-0.9-0.4c-1.6-0.7-3.3-1.1-5-0.7c-1.9,0.4-3.3,1.5-4.3,3.1c-1.2,1.9-1.6,4-1.6,6.2 C710.3,75.1,710.3,75.2,710.4,75.4z M719.6,81.5c-0.1-0.7-0.2-1.4-0.3-2.1c-0.5-2-1.9-3.2-3.7-3.3c-2.1-0.1-3.9,0.9-4.6,2.8 c-0.9,2.4-0.5,4.7,1.1,6.7c1.9,2.3,5.4,1.8,6.8-0.8C719.3,83.8,719.5,82.7,719.6,81.5z"></path> <path class="st0" d="M728.6,85.2c0.4,0.2,0.7,0.4,1.1,0.6c2.3,1.3,4.6,1.6,7.1,0.6c3.3-1.4,3.7-4.6,2.8-6.8 c-0.7-1.7-2.1-2.5-3.8-2.9c-1.8-0.4-3.6-0.2-5.4-0.1c-0.4,0-0.8,0.1-1.3,0.1c-0.2-0.7,0.5-12.4,0.8-13.8c0.7-0.2,12.1-0.2,13.1,0 c0,1.1,0,2.2,0,3.5c-1.6,0-3.2,0-4.8,0c-1.6,0-3.1,0-4.6,0c-0.3,0.7-0.7,5.7-0.5,6.8c0.3,0,0.7,0,1,0c1.6-0.1,3.2,0,4.8,0.5 c2.9,0.9,4.9,3.2,5.2,6.2c0.2,1.8,0.1,3.6-0.6,5.2c-1.2,2.7-3.4,4.2-6.2,4.9c-2.5,0.5-5,0.5-7.5-0.2c0,0-0.1,0-0.1,0 c-1.5-0.4-1.5-0.4-1.5-1.9c0-0.8,0-1.7,0-2.5C728.4,85.4,728.5,85.4,728.6,85.2z"></path> <path class="st0" d="M685.9,67.6c0-1.3,0-2.3,0-3.4c0-0.4,0.3-0.6,0.6-0.7c1.4-0.7,2.9-1.1,4.5-1.2c1.7-0.1,3.3-0.1,4.9,0.5 c2.2,0.8,3.8,2.3,4.2,4.7c0.5,3.1-0.5,6.2-3.8,7.6c-0.4,0.2-0.7,0.3-1.1,0.6c0.4,0.1,0.8,0.2,1.3,0.3c2.3,0.7,3.9,2.1,4.5,4.4 c0.7,3.1-0.2,5.8-2.8,7.8c-1.6,1.3-3.5,1.8-5.6,2c-2.3,0.2-4.6,0-6.8-0.9c-0.7-0.3-1-0.7-1-1.5c0.1-0.9,0-1.9,0-3 c0.4,0.3,0.7,0.5,1,0.7c2.5,1.5,5.1,1.9,7.8,0.9c2.4-0.9,3.4-2.9,2.9-5.4c-0.2-1.1-0.9-1.9-1.8-2.4c-1.3-0.8-2.7-1-4.1-1.1 c-0.7,0-1.3,0-2,0c-0.3,0-0.6,0-0.9-0.1c0-1.1,0-2.1,0-3.2c0.5,0,0.9-0.1,1.4-0.1c1.3,0,2.6-0.1,3.9-0.5c2.6-0.9,3.7-3.7,2.5-6.1 c-0.5-1-1.3-1.5-2.3-1.8c-2.2-0.6-4.3-0.2-6.2,1.1C686.5,67.2,686.3,67.3,685.9,67.6z"></path> <path class="st0" d="M545.9,70.7c1.5,0,2.9,0,4.4,0c-0.5,1.2-0.9,2.3-1.3,3.4c-2.4,6.2-4.8,12.4-7.3,18.7 c-0.7,1.7-1.5,3.2-2.8,4.5c-1.8,1.7-3.9,2.3-6.3,1.9c-0.7-0.1-0.8-0.2-0.8-1c0-0.8,0-1.6,0-2.5c0.4,0.1,0.7,0.1,0.9,0.1 c2.1,0.3,3.6-0.5,4.5-2.4c0.5-1,0.8-2.1,1.3-3.2c0.2-0.5,0-0.8-0.2-1.2c-1.2-3.1-2.4-6.1-3.7-9.2c-1.1-2.8-2.2-5.6-3.4-8.5 c-0.1-0.2-0.1-0.4-0.2-0.7c0.8-0.1,1.6-0.1,2.3-0.1c0.8,0,1.5,0,2.4,0c1.6,5,3.3,10,4.9,15c0.1,0,0.1,0,0.2,0 C542.5,80.6,544.2,75.6,545.9,70.7z"></path> <path class="st0" d="M586.5,89.8c0-0.9-0.1-1.7-0.1-2.6c-0.1,0-0.1,0-0.2,0c-0.2,0.2-0.3,0.4-0.5,0.6c-2,2.7-5.9,3.4-8.8,1.7 c-2.1-1.2-2.7-3.2-2.5-5.4c0.3-2.9,1.9-4.8,4.9-5.4c1.7-0.3,3.4-0.5,5.1-0.8c0.6-0.1,1.3-0.2,1.8-0.3c0.2-2.4-1.1-4-3.3-4.1 c-2.1-0.1-4.1,0.5-5.8,1.7c-0.2,0.2-0.4,0.3-0.7,0.5c-0.1-0.3-0.1-0.5-0.1-0.7c0-0.8,0-1.6,0-2.4c0-0.5,0.1-0.7,0.6-0.9 c3-1.5,6.1-2,9.4-1.1c2.4,0.6,3.8,2.3,4.2,4.7c0.1,0.8,0.2,1.6,0.2,2.4c0,3.8,0,7.6,0,11.4c0,0.3,0,0.5-0.1,0.9 C589.2,89.8,587.9,89.8,586.5,89.8z M586.4,80.5c-0.7,0.1-1.3,0.1-1.9,0.2c-1.4,0.3-2.8,0.4-4.2,0.8c-1.2,0.3-1.7,1.3-1.7,2.6 c0,1.2,0.7,2.2,1.8,2.5c1.7,0.6,3.3,0.2,4.7-1.1C586.5,84.3,586.6,82.5,586.4,80.5z"></path> <path class="st0" d="M557.8,89.8c-1.5,0-2.9,0-4.3,0c0-6.4,0-12.7,0-19.2c1.4-0.1,2.8,0,4.2,0c0,0.9,0.1,1.8,0.1,2.7 c0.1,0,0.1,0,0.2,0c0.1-0.2,0.3-0.3,0.4-0.5c2.1-2.7,5.3-3.2,8-2.3c1.9,0.6,3.1,2.1,3.6,4c0.3,1,0.4,2,0.5,3c0.1,4,0,8,0,12 c0,0.1,0,0.2-0.1,0.4c-1.4,0-2.8,0-4.3,0c0-0.4,0-0.7,0-1c0-3.2,0-6.4,0-9.6c0-0.9-0.1-1.8-0.3-2.6c-0.7-3.1-4-4.2-6.4-2.1 c-1,0.9-1.6,2.1-1.7,3.4c0,0.5,0,1,0,1.5c0,3.1,0,6.2,0,9.3C557.8,89,557.8,89.4,557.8,89.8z"></path> <path class="st0" d="M669.7,71c0,1.2,0,2.3,0,3.6c-0.3-0.1-0.5-0.2-0.8-0.3c-1.8-0.8-3.7-1.1-5.6-0.6c-0.4,0.1-0.8,0.3-1.1,0.5 c-1,0.7-1.1,2.1-0.2,2.9c0.5,0.4,1.2,0.7,1.8,1c1,0.5,2.1,0.8,3.1,1.3c0.5,0.2,0.9,0.5,1.4,0.8c3.2,2.2,3.2,6.6-0.1,8.7 c-1.1,0.7-2.4,1.1-3.7,1.3c-2.3,0.3-4.5,0.2-6.6-0.6c-0.9-0.3-0.9-0.3-0.9-1.3c0-1,0-1.9,0-3.1c0.5,0.3,0.8,0.4,1.1,0.6 c2,1.1,4.2,1.4,6.5,0.9c1.2-0.3,1.9-1.1,1.8-2.2c0-0.6-0.4-1.1-0.9-1.4c-0.7-0.4-1.4-0.8-2.1-1.1c-1.1-0.5-2.1-0.9-3.2-1.4 c-0.4-0.2-0.7-0.4-1.1-0.7c-2.5-1.8-2.8-5.6-0.5-7.7c1-1,2.2-1.5,3.5-1.9c2.4-0.6,4.7-0.4,7,0.3c0.1,0,0.2,0.1,0.3,0.1 C669.4,70.8,669.5,70.9,669.7,71z"></path> <path class="st0" d="M653.7,74.7c-0.9-0.4-1.8-0.8-2.7-1.1c-3.5-0.9-6.7,1.1-7.6,4.5c-0.4,1.5-0.4,3,0,4.5c1,3.5,4.1,4.8,7.1,4.2 c0.9-0.2,1.7-0.6,2.5-0.9c0.2-0.1,0.4-0.2,0.8-0.4c0,1.2,0,2.2,0,3.3c0,0.2-0.4,0.5-0.7,0.6c-2.2,0.9-4.5,1.2-6.8,0.7 c-3.7-0.7-6.1-3-7.1-6.6c-0.7-2.5-0.5-5.1,0.5-7.5c1.3-3.1,3.7-5.1,7-5.7c2.1-0.4,4.1-0.3,6.2,0.3c1.1,0.3,1.1,0.3,1.1,1.4 c0,0.7,0,1.5,0,2.2C653.8,74.4,653.7,74.6,653.7,74.7z"></path> <path class="st0" d="M634.4,89.8c-1.4,0-2.8,0-4.1,0c-0.2-0.7-0.3-18.1,0-19.1c1.3,0,2.7,0,4.1,0C634.4,77,634.4,83.4,634.4,89.8z "></path> <path class="st0" d="M632.3,66.4c-1.5,0-2.6-1-2.6-2.4c0-1.4,1.1-2.5,2.6-2.5c1.5,0,2.6,1.1,2.6,2.4 C634.9,65.3,633.8,66.4,632.3,66.4z"></path> </g> </g> <g id="Layer_1"> <line class="st10" x1="375.6" y1="3.1" x2="375.6" y2="146.9"></line> <g> <path class="st11" d="M71.1,46.4c4.5,0,9,0,13.5,0c0.5,0,0.7,0.1,0.7,0.7c0,8.9,0,17.8,0,26.6c0,0.6-0.2,0.7-0.7,0.7 c-9,0-18,0-26.9,0c-0.8,0-0.8,0-0.8-0.7c0-8.9,0-17.7,0-26.6c0-0.6,0.1-0.7,0.7-0.7C62.1,46.4,66.6,46.4,71.1,46.4 C71.1,46.4,71.1,46.4,71.1,46.4z"></path> <path class="st12" d="M102.7,46.4c4.5,0,9,0,13.5,0c0.5,0,0.7,0.1,0.7,0.7c0,8.9,0,17.8,0,26.6c0,0.6-0.2,0.7-0.7,0.7 c-9,0-18,0-26.9,0c-0.8,0-0.8,0-0.8-0.7c0-8.9,0-17.7,0-26.6c0-0.6,0.1-0.7,0.7-0.7C93.6,46.4,98.1,46.4,102.7,46.4 C102.7,46.4,102.7,46.4,102.7,46.4z"></path> <path class="st13" d="M102.7,77.2c4.5,0,9,0,13.5,0c0.5,0,0.7,0.1,0.7,0.7c0,8.9,0,17.8,0,26.6c0,0.6-0.2,0.7-0.7,0.7 c-9,0-18,0-26.9,0c-0.8,0-0.8,0-0.8-0.7c0-8.9,0-17.7,0-26.6c0-0.6,0.1-0.7,0.7-0.7C93.6,77.2,98.1,77.2,102.7,77.2 C102.7,77.2,102.7,77.2,102.7,77.2z"></path> <path class="st14" d="M71.2,77.2c4.5,0,9,0,13.5,0c0.5,0,0.7,0.1,0.7,0.7c0,8.9,0,17.8,0,26.6c0,0.6-0.2,0.7-0.7,0.7 c-9,0-18,0-26.9,0c-0.8,0-0.8,0-0.8-0.7c0-8.9,0-17.7,0-26.6c0-0.6,0.1-0.7,0.7-0.7C62.2,77.2,66.7,77.2,71.2,77.2 C71.2,77.2,71.2,77.2,71.2,77.2z"></path> <path class="st0" d="M166.7,46.7c0,5.4,0,10.8,0,16.1c0,3.2,0,6.4,0,9.6c0,1,0,2,0,2.9c0,0.4-0.1,0.5-0.5,0.5c-1.3,0-2.7,0-4,0 c-0.4,0-0.6-0.1-0.6-0.6c0-7.2,0-14.5,0-21.7c0-0.2,0-0.3,0-0.5c0,0-0.1,0-0.1,0c-0.1,0.2-0.2,0.4-0.3,0.6 c-1.8,4.4-3.6,8.7-5.3,13.1c-1.2,2.9-2.3,5.8-3.5,8.7c-0.2,0.4-0.5,0.5-0.8,0.5c-0.7,0-1.5,0-2.2-0.1c-0.2,0-0.5-0.2-0.5-0.4 c-2.9-6.9-5.7-13.8-8.6-20.8c-0.2-0.4-0.3-0.8-0.5-1.2c-0.1-0.2-0.2-0.3-0.3-0.5c-0.1,0-0.1,0-0.2,0c0,0.2-0.1,0.4-0.1,0.6 c0,7.1,0,14.3,0,21.4c0,0.9,0,0.9-0.9,0.9c-1,0-2.1,0-3.1,0.1c-0.5,0-0.7-0.1-0.7-0.6c0-9.3,0-18.7,0-28c0-0.4,0.1-0.5,0.5-0.5 c2.1,0,4.2,0,6.2,0c0.4,0,0.6,0.1,0.7,0.5c2.2,5.7,4.4,11.3,6.7,17c0.5,1.3,1,2.6,1.5,3.9c0.1,0.1,0.1,0.3,0.3,0.5 c0.2-0.3,0.3-0.5,0.4-0.7c2.8-6.8,5.6-13.6,8.4-20.4c0.3-0.8,0.3-0.8,1.3-0.8c1.8,0,3.6,0,5.4,0C166.3,46.7,166.5,46.7,166.7,46.7 z"></path> <path class="st0" d="M284.6,55c0.5,0,0.9,0,1.3,0c1.9,0,3.8,0,5.7,0c0.4,0,0.5-0.1,0.5-0.5c0-1.2,0-2.5,0-3.7 c0-0.3,0.1-0.5,0.4-0.6c1.3-0.4,2.7-0.8,4-1.2c0.1,0,0.3,0,0.5-0.1c0,0.3,0,0.4,0,0.6c0,1.6,0,3.2,0,4.9c0,0.5,0.1,0.6,0.6,0.6 c1.3,0,2.5,0,3.8,0c0.5,0,0.7,0.1,0.7,0.6c0,0.9,0,1.7,0,2.6c0,0.5-0.1,0.7-0.6,0.7c-1.3,0-2.6,0-3.9,0c-0.4,0-0.5,0.1-0.5,0.5 c0,3.3,0,6.6,0,9.8c0,1.9,0.8,2.9,2.3,3.1c0.7,0.1,1.4-0.2,2.1-0.3c0.2,0,0.3-0.1,0.5-0.2c0,0.2,0.1,0.3,0.1,0.4c0,1,0,2,0,3.1 c0,0.2-0.2,0.5-0.4,0.6c-1.9,0.5-3.9,0.8-5.8,0.2c-2.1-0.7-3.3-2.3-3.5-4.4c-0.2-1.7-0.2-3.4-0.2-5.1c0-2.3,0-4.7,0-7 c0-0.4,0-0.6-0.5-0.6c-2.2,0-4.5,0-6.7,0c-0.3,0-0.4,0.1-0.4,0.4c0,0.3,0,0.7,0,1c0,5,0,9.9,0,14.9c0,0.5-0.1,0.7-0.7,0.7 c-1.2,0-2.5,0-3.7,0c-0.5,0-0.6-0.2-0.6-0.6c0-0.3,0-0.7,0-1c0-4.9,0-9.7,0-14.6c0-0.8,0-0.8-0.8-0.8c-0.7,0-1.5,0-2.2,0 c-0.4,0-0.5-0.1-0.5-0.5c0-1,0-2,0-2.9c0-0.3,0.1-0.4,0.4-0.4c0.8,0,1.6,0,2.4,0c0.7,0,0.7-0.1,0.7-0.8c0-0.8,0-1.7,0-2.5 c0.1-3.8,3-6.9,6.9-7.1c1-0.1,2,0.1,2.9,0.1c0.5,0,0.7,0.2,0.7,0.8c0,1,0,2,0,2.9c0,0.2,0,0.3,0,0.5c-0.7-0.1-1.3-0.3-1.9-0.3 c-2.2-0.3-3.3,1-3.5,3C284.5,52.6,284.6,53.8,284.6,55z"></path> <path class="st0" d="M264.9,54.5c2.6,0,5,0.6,7,2.2c2,1.7,3.1,3.9,3.4,6.5c0.2,1.5,0.3,2.9,0,4.4c-0.9,4.8-4.1,7.9-8.8,8.5 c-2.1,0.3-4.2,0.2-6.2-0.5c-3.2-1.1-5.2-3.4-6-6.6c-0.8-3.1-0.6-6.1,0.8-9c1.5-3.1,4.2-4.7,7.5-5.3 C263.3,54.5,264.1,54.5,264.9,54.5z M258.8,65.5c0,0.3-0.1,0.7,0,1c0.2,1.1,0.4,2.2,0.9,3.1c0.8,1.8,2.5,2.5,4.4,2.7 c2.3,0.2,4.6-0.6,5.6-3c1.1-2.7,1.1-5.5-0.2-8.2c-0.6-1.3-1.7-2.1-3.1-2.4c-0.8-0.2-1.6-0.2-2.4-0.2c-2.1,0.1-3.5,1.2-4.4,3.1 C259,62.8,258.8,64.2,258.8,65.5z"></path> <path class="st0" d="M224.2,54.4c2.4,0.1,4.7,0.6,6.6,2c2.2,1.6,3.4,3.8,3.8,6.4c0.5,3.2,0.2,6.3-1.6,9.1c-1.6,2.4-4,3.7-6.8,4.2 c-2.3,0.4-4.5,0.2-6.7-0.6c-3.5-1.3-5.5-3.9-6.1-7.6c-0.3-2-0.3-4,0.3-6c1-3.7,3.5-6,7.1-7C221.9,54.6,223,54.5,224.2,54.4z M229.7,65.3c0-0.5,0-1,0-1.6c-0.1-1.7-0.8-3.2-2.2-4.2c-1.2-0.9-2.6-1.1-4-1c-2.3,0.1-4.2,1.5-4.8,3.7c-0.6,1.9-0.6,3.9-0.2,5.9 c0.5,2.2,1.7,3.7,4,4.1c1,0.2,2,0.2,3,0c1.7-0.2,2.9-1.2,3.6-2.8C229.6,68.1,229.7,66.7,229.7,65.3z"></path> <path class="st0" d="M250.2,59.6c-1.1-0.4-2.1-0.9-3.2-1.2c-1.1-0.3-2.2-0.3-3.3,0.1c-1.5,0.5-1.9,2.2-0.9,3.4 c0.5,0.5,1.1,0.8,1.7,1.1c1.3,0.6,2.6,1.1,3.9,1.8c2,1.1,3.1,2.8,3,5.1c-0.1,2.2-1.1,3.8-2.9,4.9c-2,1.2-4.1,1.7-6.4,1.3 c-1.3-0.2-2.7-0.5-4-0.8c-0.5-0.1-0.7-0.4-0.7-0.9c0-1.2,0-2.5,0-3.9c0.4,0.2,0.7,0.4,1,0.5c1.3,0.6,2.6,1.3,4,1.3 c0.8,0,1.7-0.1,2.5-0.2c0.7-0.1,1.3-0.6,1.4-1.4c0.2-0.8,0-1.6-0.6-2.1c-0.7-0.5-1.4-0.9-2.2-1.3c-1-0.5-2-1-3-1.5 c-4.1-2.2-4.2-7.5-0.4-10.1c1.3-0.9,2.8-1.3,4.4-1.4c1.8-0.2,3.6,0.1,5.3,0.7c0.2,0.1,0.4,0.3,0.4,0.5c0,1.3,0,2.5,0,3.8 C250.3,59.5,250.2,59.6,250.2,59.6z"></path> <path class="st0" d="M196.5,60c-0.3-0.2-0.7-0.3-1-0.5c-1.9-1-3.8-1.5-5.9-0.8c-2.3,0.7-3.7,2.3-4.2,4.5c-0.4,1.9-0.4,3.9,0.4,5.8 c0.7,1.5,1.9,2.3,3.3,2.9c2.3,0.8,4.5,0.4,6.6-0.9c0.2-0.1,0.4-0.2,0.7-0.4c0,0.2,0.1,0.3,0.1,0.4c0,1.2,0,2.3,0,3.5 c0,0.2-0.2,0.5-0.4,0.5c-1.3,0.4-2.6,0.9-3.9,1c-2.6,0.4-5.1,0-7.3-1.4c-2.8-1.7-4.4-4.2-4.7-7.4c-0.4-3.2,0.3-6.1,2.1-8.7 c1.8-2.5,4.4-3.7,7.4-4.1c2.2-0.3,4.4-0.1,6.4,0.9c0.2,0.1,0.4,0.3,0.4,0.5c0,1.3,0,2.7,0,4C196.5,59.9,196.5,60,196.5,60z"></path> <path class="st0" d="M205.3,58.3c0.5-0.7,0.8-1.2,1.2-1.7c1.4-1.7,3.3-2.1,5.5-1.9c0.4,0,0.7,0.2,0.7,0.7c0,1.4,0,2.7,0,4.2 c-0.2-0.1-0.4-0.1-0.6-0.2c-1-0.4-2-0.6-3.1-0.4c-1.5,0.3-2.5,1.3-3,2.6c-0.5,1.2-0.6,2.5-0.7,3.8c0,3.2,0,6.5,0,9.7 c0,0.5-0.1,0.7-0.6,0.7c-1.2,0-2.4,0-3.6,0c-0.5,0-0.7-0.2-0.7-0.7c0-4.3,0-8.7,0-13c0-2.2,0-4.4,0-6.7c0-0.4,0.1-0.6,0.5-0.6 c1.3,0,2.5,0,3.8,0c0.4,0,0.6,0.1,0.6,0.5c0,0.7,0,1.5,0,2.2C205.3,57.9,205.3,58,205.3,58.3z"></path> <path class="st0" d="M257,98.4c0,1,0,1.8,0,2.6c0,1.2,0,2.4,0,3.6c0,0.4-0.1,0.6-0.5,0.5c-0.6,0-1.3,0-1.9,0 c-0.4,0-0.6-0.1-0.6-0.6c0-2.6,0-5.3,0-7.9c0-3.1,0-6.2,0-9.2c0-0.5,0.1-0.6,0.6-0.6c1.7,0,3.4,0,5,0c1.4,0,2.8,0.3,4.1,1 c2,1.1,2.6,3.3,2.4,5.2c-0.4,3.3-3.1,5.1-6,5.2C259.1,98.4,258.1,98.4,257,98.4z M257,92.7c0,1,0,1.9,0,2.9c0,0.4,0.1,0.6,0.5,0.6 c1-0.1,2-0.1,2.9-0.2c1.5-0.2,2.6-1.3,2.7-2.7c0.1-2-0.5-3.3-2.2-3.7c-1.2-0.3-2.4-0.2-3.6-0.2c-0.1,0-0.3,0.3-0.3,0.4 C257,90.7,257,91.7,257,92.7z"></path> <path class="st0" d="M171.6,65.4c0-3.3,0-6.6,0-9.9c0-0.5,0.1-0.6,0.6-0.6c1.3,0,2.5,0,3.8,0c0.4,0,0.5,0.1,0.5,0.5 c0,6.6,0,13.2,0,19.8c0,0.5-0.1,0.6-0.6,0.6c-1.2,0-2.4,0-3.6,0c-0.5,0-0.7-0.1-0.7-0.7C171.7,71.9,171.6,68.7,171.6,65.4 C171.6,65.4,171.6,65.4,171.6,65.4z"></path> <path class="st0" d="M144.9,89.9c-0.9-0.3-1.7-0.6-2.5-0.7c-1.1-0.2-2.2-0.2-3.4,0.1c-1.5,0.4-2.3,1.7-1.9,3 c0.2,0.7,0.7,1.1,1.3,1.4c1.1,0.6,2.2,1.1,3.3,1.7c1.2,0.6,2.3,1.4,3.1,2.5c1.4,1.7,1.3,5.1-1.5,6.6c-1,0.5-2.1,0.8-3.2,0.9 c-1.8,0.1-3.7,0-5.4-0.6c-0.5-0.2-0.7-0.4-0.7-1c0-0.7,0-1.3,0-1.9c1,0.4,2,0.8,3,1c1.5,0.3,3.1,0.4,4.5-0.4 c1.5-0.8,1.7-2.8,0.3-3.7c-0.9-0.7-2-1.2-3-1.7c-1.4-0.7-2.7-1.4-3.8-2.6c-1.5-1.7-1.5-4.9,0.8-6.4c1.2-0.8,2.6-1.3,4-1.4 c1.6-0.1,3.1-0.1,4.7,0.4c0.3,0.1,0.5,0.2,0.5,0.6C144.8,88.4,144.9,89.2,144.9,89.9z"></path> <path class="st0" d="M209,105.4c-3.1,0.1-5.7-1.9-6.3-5c-0.5-2.4-0.2-4.8,1.7-6.6c1.1-1.1,2.5-1.7,4-1.8c1.7-0.2,3.3,0,4.8,0.9 c1.5,0.9,2.3,2.2,2.7,3.9c0.4,1.9,0.3,3.8-0.7,5.5C213.8,104.5,211.7,105.4,209,105.4z M213.1,98.7c-0.1-0.6-0.1-1.1-0.2-1.7 c-0.3-1.7-1.7-2.8-3.4-2.9c-1.9-0.1-3.3,0.8-3.8,2.6c-0.2,1-0.3,2.1-0.2,3.2c0.1,1.4,0.8,2.6,2.2,3.1c1.5,0.6,2.9,0.5,4.2-0.7 C212.9,101.2,213.1,100,213.1,98.7z"></path> <path class="st0" d="M154.2,105.4c-2.4,0-4.4-0.9-5.7-3c-0.9-1.4-1-2.9-0.9-4.5c0.1-1.6,0.7-2.9,1.8-4.1c1.2-1.2,2.6-1.7,4.2-1.9 c1.1-0.1,2.3-0.1,3.3,0.3c2.4,0.8,3.6,2.6,4,5c0.2,1.2,0.1,2.3-0.2,3.4c-0.7,2.7-3.1,4.6-5.9,4.7 C154.7,105.4,154.4,105.4,154.2,105.4z M154.5,94.1c-1.7,0-2.9,0.6-3.6,2c-0.7,1.6-0.8,3.3-0.1,4.9c0.7,1.6,2.2,2.4,4,2.2 c1.5-0.2,2.7-1,3-2.7c0.2-0.9,0.2-1.9,0.1-2.8C157.9,95.4,156.5,94.1,154.5,94.1z"></path> <path class="st0" d="M319.7,99.5c-0.2,1.6,1,3.3,2.7,3.7c1.6,0.3,3.3,0.2,4.8-0.7c0.1-0.1,0.2-0.1,0.5-0.2c0,0.7,0,1.3,0,1.9 c0,0.2-0.2,0.4-0.4,0.4c-0.9,0.3-1.9,0.6-2.8,0.8c-2.2,0.3-4.3,0.1-6-1.7c-1-1.1-1.4-2.3-1.6-3.7c-0.3-2.8,0.4-5.1,2.7-6.9 c3.4-2.6,8.2-0.8,9,3.5c0.1,0.8,0.1,1.6,0.2,2.4c0,0.5-0.1,0.7-0.6,0.6c-2.6,0-5.1,0-7.7,0C320.1,99.5,319.9,99.5,319.7,99.5z M319.7,97.3c0.1,0,0.1,0.1,0.1,0.1c1.9,0,3.9,0,5.8,0c0.1,0,0.3-0.2,0.3-0.4c0.1-1-0.7-2.5-1.7-2.8 C321.6,93.2,319.8,95.2,319.7,97.3z"></path> <path class="st0" d="M275.5,103.2c-0.1,0.1-0.2,0.2-0.3,0.3c-1.3,2-4.2,2.4-5.9,1.4c-1.4-0.8-2.2-2.4-1.8-4c0.5-2,1.8-3.2,4-3.4 c1.2-0.1,2.4-0.3,3.6-0.4c0.5-0.1,0.7-0.2,0.6-0.8c-0.2-1.6-1.4-2.4-3.1-2.3c-1.4,0.1-2.6,0.5-3.8,1.4c0-0.8,0-1.5,0-2.2 c0-0.1,0.1-0.2,0.2-0.3c2.3-1,4.6-1.5,7-0.6c1.7,0.6,2.3,2.1,2.4,3.7c0.1,2.8,0.1,5.7,0.1,8.5c0,0.4-0.1,0.6-0.6,0.6 c-0.6,0-1.2,0-1.8,0c-0.4,0-0.5-0.2-0.5-0.5c0-0.4,0-0.8,0-1.3C275.7,103.3,275.6,103.3,275.5,103.2z M272.4,103.3 c1.5,0,2.6-0.7,3.1-2.1c0.2-0.6,0.2-1.2,0.3-1.8c0.1-0.7-0.1-0.8-0.8-0.7c-0.1,0-0.3,0-0.4,0.1c-0.9,0.1-1.9,0.3-2.8,0.5 c-0.7,0.2-1.3,0.5-1.5,1.3C269.8,102.2,270.8,103.4,272.4,103.3z"></path> <path class="st0" d="M179.7,103.2c-0.1,0.1-0.3,0.3-0.4,0.4c-1.5,2.2-5.5,2.4-7,0.5c-0.7-0.8-1.1-1.8-1.2-2.8 c-0.1-2.9-0.1-5.9-0.1-8.8c0-0.3,0.1-0.4,0.4-0.4c0.6,0,1.3,0,1.9,0c0.4,0,0.6,0.2,0.6,0.7c0,2.4,0,4.9,0,7.3c0,1,0.2,1.9,1,2.5 c1.3,1.1,3.9,0.6,4.5-1.1c0.3-0.7,0.4-1.5,0.5-2.3c0.1-2.2,0-4.4,0-6.6c0-0.5,0.1-0.7,0.7-0.6c0.5,0,1.1,0,1.6,0 c0.5,0,0.6,0.2,0.6,0.6c0,1.7,0,3.5,0,5.2c0,2.2,0,4.3,0,6.5c0,0.7,0,0.7-0.7,0.7c-0.6,0-1.1,0-1.7,0c-0.3,0-0.5-0.1-0.5-0.4 c0-0.5,0-1,0-1.5C179.8,103.2,179.8,103.2,179.7,103.2z"></path> <path class="st0" d="M222.2,94.3c0.2-0.2,0.4-0.4,0.6-0.6c1.6-2.1,4.3-2.2,5.9-1.4c1.3,0.7,1.8,1.8,2.1,3.1c0.1,0.5,0.1,1,0.1,1.5 c0,2.5,0,5.1,0,7.6c0,0.4-0.1,0.6-0.6,0.5c-0.5,0-1.1,0-1.6,0c-0.5,0-0.6-0.1-0.6-0.6c0-2.3,0-4.5,0-6.8c0-0.5-0.1-1.1-0.2-1.6 c-0.4-2.3-3.1-2.5-4.3-1.5c-0.9,0.7-1.4,1.6-1.4,2.8c0,2.3,0,4.5,0,6.8c0,0.9,0,0.9-0.9,0.9c-0.5,0-1,0-1.5,0 c-0.3,0-0.5-0.1-0.5-0.5c0-4,0-8.1,0-12.1c0-0.3,0.1-0.5,0.4-0.5c0.6,0,1.3,0,1.9,0c0.3,0,0.5,0.1,0.5,0.4c0,0.3,0,0.6,0,0.9 c0,0.3,0,0.5-0.1,0.8C222.1,94.2,222.1,94.3,222.2,94.3z"></path> <path class="st0" d="M305.5,94.3c0.1-0.1,0.3-0.3,0.4-0.4c1.3-1.7,3.1-2.3,5.2-1.8c1.6,0.4,2.5,1.5,2.9,3.1 c0.1,0.6,0.2,1.3,0.2,1.9c0,2.5,0,5.1,0,7.6c0,0.5-0.1,0.6-0.6,0.6c-0.6,0-1.1,0-1.7,0c-0.4,0-0.6-0.1-0.6-0.6c0-2.4,0-4.7,0-7.1 c0-0.6-0.1-1.2-0.3-1.8c-0.6-2-3.5-2.1-4.8-0.6c-0.7,0.8-0.9,1.7-0.9,2.7c0,2.2,0,4.5,0,6.7c0,0.5-0.2,0.6-0.6,0.6 c-0.5,0-1.1,0-1.6,0c-0.4,0-0.6-0.1-0.6-0.6c0-2.5,0-5,0-7.5c0-1.4,0-2.9-0.1-4.3c0-0.5,0.1-0.7,0.6-0.6c0.6,0,1.2,0,1.8,0 c0.4,0,0.5,0.1,0.5,0.5c0,0.5,0,1.1,0,1.6C305.4,94.3,305.5,94.3,305.5,94.3z"></path> <path class="st0" d="M299.9,102.9c-0.1,0.7-0.1,1.3-0.2,1.9c0,0.1-0.3,0.3-0.5,0.4c-1.1,0.2-2.3,0.3-3.4-0.1c-1.2-0.4-2-1.4-2-2.7 c-0.1-2.3-0.1-4.5-0.1-6.8c0-0.3,0-0.5,0-0.8c0-0.3-0.1-0.5-0.5-0.4c-0.4,0-0.8,0-1.3,0c-0.3,0-0.5-0.1-0.5-0.5c0-0.4,0-0.8,0-1.3 c0-0.4,0.1-0.5,0.5-0.5c0.4,0,0.8,0,1.2,0c0.4,0,0.5-0.1,0.5-0.5c0-0.7,0-1.4,0-2.1c0-0.3,0.1-0.5,0.4-0.6 c0.6-0.2,1.3-0.3,1.9-0.5c0.5-0.1,0.6,0,0.6,0.5c0,0.9,0,1.8,0,2.7c0,0.4,0.1,0.5,0.5,0.5c0.8,0,1.5,0,2.3,0 c0.4,0,0.5,0.1,0.5,0.5c0,0.4,0,0.8,0,1.3c0,0.4-0.1,0.5-0.5,0.5c-0.7,0-1.5,0-2.2,0c-0.4,0-0.5,0.1-0.5,0.5c0,2.1,0,4.1,0,6.2 c0,1.8,1,2.5,2.7,2C299.5,103,299.6,103,299.9,102.9z"></path> <path class="st0" d="M193.6,103c0,0.6,0,1.2,0,1.8c0,0.1-0.2,0.4-0.4,0.4c-1.3,0.2-2.5,0.3-3.8-0.2c-1.3-0.6-1.8-1.7-1.8-3 c0-2.3,0-4.6,0-6.9c0-0.7,0-0.8-0.8-0.8c-0.1,0-0.2,0-0.3,0c-0.4-0.1-1.1-0.1-1.1-0.2c-0.1-0.6-0.1-1.3,0-1.9 c0-0.1,0.2-0.1,0.4-0.2c0.4,0,0.8,0,1.2,0c0.5,0,0.6-0.2,0.6-0.6c0-0.7,0-1.3,0-2c0-0.2,0.2-0.4,0.4-0.5c0.7-0.2,1.3-0.4,2-0.5 c0.4-0.1,0.5,0,0.5,0.4c0,0.9,0,1.9,0,2.8c0,0.4,0.1,0.5,0.5,0.5c0.7,0,1.5,0,2.2,0c0.4,0,0.5,0.1,0.5,0.5c0,0,0,0.1,0,0.1 c0.1,1.6,0.1,1.6-1.6,1.6c-0.4,0-0.8,0-1.3,0c-0.3,0-0.4,0.1-0.4,0.4c0,2.1,0,4.3,0,6.4c0,1.7,1,2.4,2.7,1.9 C193.3,103,193.4,103,193.6,103z"></path> <path class="st0" d="M242.6,94.8c-0.3-0.1-0.6-0.2-0.8-0.3c-1.1-0.5-2.2-0.6-3.4-0.4c-1.3,0.2-2,1.4-1.3,2.3 c0.2,0.4,0.7,0.6,1.1,0.8c0.8,0.4,1.6,0.6,2.4,1c0.4,0.2,0.8,0.5,1.2,0.7c2,1.3,2,4.3-0.3,5.6c-0.8,0.5-1.8,0.8-2.8,0.9 c-1.4,0.2-2.9,0.1-4.3-0.4c-0.3-0.1-0.5-0.3-0.5-0.7c0-0.6,0-1.2,0-1.9c0.2,0.1,0.4,0.2,0.6,0.3c1.4,0.8,2.9,0.9,4.5,0.6 c0.6-0.1,1.1-0.4,1.3-1.1c0.2-0.7-0.1-1.3-0.7-1.7c-0.6-0.3-1.2-0.5-1.8-0.8c-0.9-0.4-1.8-0.8-2.6-1.3c-1.7-1.3-1.7-3.6-0.1-5 c1-0.8,2.1-1.2,3.3-1.3c1.2-0.1,2.5-0.1,3.7,0.4c0.3,0.1,0.5,0.2,0.5,0.6C242.6,93.5,242.6,94.1,242.6,94.8z"></path> <path class="st0" d="M167.2,95.6c0,3,0,6,0,9c0,0.5-0.1,0.7-0.6,0.6c-0.6,0-1.2,0-1.9,0c-0.4,0-0.5-0.1-0.5-0.5 c0-6.1,0-12.2,0-18.3c0-0.3,0.1-0.5,0.5-0.5c0.7,0,1.3,0,2,0c0.4,0,0.6,0.2,0.6,0.6C167.2,89.5,167.2,92.5,167.2,95.6 C167.2,95.6,167.2,95.6,167.2,95.6z"></path> <path class="st0" d="M285.3,94.7c0.1-0.2,0.3-0.4,0.4-0.7c0.6-1.1,1.4-1.9,2.7-2.1c0.2,0,0.4,0,0.5,0c0.8,0,0.9,0.2,0.9,1 c0,0.5,0,0.9,0,1.4c0,0.3-0.1,0.4-0.4,0.3c-0.3-0.1-0.6-0.1-0.9-0.2c-1.3-0.2-2.2,0.4-2.8,1.5c-0.3,0.7-0.6,1.5-0.6,2.3 c-0.1,1.9,0,3.8,0,5.7c0,0.2,0,0.4,0,0.5c0,0.4-0.2,0.7-0.7,0.6c-0.5-0.1-1.1,0-1.6,0c-0.5,0-0.6-0.2-0.6-0.6c0-2.7,0-5.5,0-8.2 c0-1.2,0-2.4,0-3.7c0-0.4,0.1-0.6,0.5-0.6c0.6,0,1.1,0,1.7,0c0.5,0,0.7,0.2,0.7,0.6c0,0.5-0.1,1.1-0.1,1.6c0,0.1,0,0.2,0,0.4 C285.2,94.7,285.3,94.7,285.3,94.7z"></path> <path class="st0" d="M334.7,94.7c0.2-0.3,0.4-0.6,0.5-0.9c0.8-1.3,1.9-2.1,3.5-1.9c0.3,0,0.6,0.2,0.6,0.5c0,0.7,0,1.4,0,2.2 c-0.3-0.1-0.6-0.1-0.8-0.2c-1.5-0.4-2.9,0.3-3.4,1.8c-0.3,0.7-0.4,1.5-0.4,2.3c-0.1,1.9,0,3.9,0,5.8c0,0.5-0.1,0.7-0.6,0.6 c-0.6,0-1.1,0-1.7,0c-0.5,0-0.6-0.2-0.6-0.6c0-2.9,0-5.9,0-8.8c0-1,0-2.1,0-3.1c0-0.4,0.1-0.6,0.5-0.5c0.6,0,1.2,0,1.9,0 c0.4,0,0.5,0.1,0.5,0.5c0,0.6-0.1,1.1-0.1,1.7c0,0.1,0,0.3,0,0.4C334.6,94.7,334.6,94.7,334.7,94.7z"></path> <path class="st0" d="M196.4,98.6c0-2,0-3.9,0-5.9c0-0.4,0.1-0.6,0.6-0.6c0.6,0,1.2,0,1.8,0c0.4,0,0.5,0.1,0.5,0.5 c0,1.6,0,3.1,0,4.7c0,2.4,0,4.8,0,7.2c0,0.5-0.1,0.7-0.6,0.7c-0.5,0-1.1,0-1.6,0c-0.5,0-0.6-0.2-0.6-0.6 C196.4,102.5,196.4,100.6,196.4,98.6C196.4,98.6,196.4,98.6,196.4,98.6z"></path> <path class="st0" d="M174.1,51.5c-1.6,0-2.9-1.2-2.9-2.7c0-1.5,1.3-2.8,2.9-2.8c1.6,0,2.9,1.2,2.9,2.7 C177.1,50.3,175.8,51.5,174.1,51.5z"></path> <path class="st0" d="M197.8,89.2c-0.9,0-1.7-0.7-1.7-1.5c0-0.8,0.8-1.6,1.7-1.6c0.9,0,1.8,0.7,1.7,1.6 C199.6,88.5,198.8,89.2,197.8,89.2z"></path> </g> </g> </svg> 