<?xml version="1.0" encoding="UTF-8"?> <svg xmlns="http://www.w3.org/2000/svg" width="68" height="90" viewBox="0 0 68 90" fill="none"><g clip-path="url(#clip0_308_82)"><path d="M63.6285 89.9912H38.0967V4.34427C38.0967 3.1921 38.5573 2.08711 39.3772 1.27241C40.1971 0.457698 41.3091 -4.76837e-07 42.4686 -4.76837e-07H63.6285C64.788 -4.76837e-07 65.9 0.457698 66.7199 1.27241C67.5398 2.08711 68.0004 3.1921 68.0004 4.34427V85.6469C68.0004 86.2174 67.8873 86.7823 67.6676 87.3094C67.4479 87.8365 67.1259 88.3154 66.7199 88.7188C66.3139 89.1222 65.832 89.4422 65.3016 89.6605C64.7711 89.8788 64.2026 89.9912 63.6285 89.9912Z" fill="url(#paint0_linear_308_82)"></path><path opacity="0.15" d="M48.2166 22.3988H41.5049V89.9912H52.5884V26.7387C52.5882 26.1685 52.4748 25.6039 52.255 25.0772C52.0351 24.5505 51.713 24.072 51.307 23.669C50.9011 23.266 50.4192 22.9464 49.8889 22.7285C49.3587 22.5106 48.7904 22.3985 48.2166 22.3988Z" fill="url(#paint1_linear_308_82)"></path><path d="M49.1798 89.9912H18.8179V26.7387C18.8179 25.5871 19.2782 24.4827 20.0977 23.6684C20.9172 22.8541 22.0286 22.3966 23.1875 22.3966H44.8101C45.969 22.3966 47.0805 22.8541 47.9 23.6684C48.7194 24.4827 49.1798 25.5871 49.1798 26.7387V89.9912Z" fill="url(#paint2_linear_308_82)"></path><path opacity="0.15" d="M27.0681 44.7756H19.896V90H31.4378V49.1111C31.436 47.9607 30.9749 46.8579 30.1556 46.0451C29.3363 45.2322 28.2259 44.7756 27.0681 44.7756Z" fill="url(#paint3_linear_308_82)"></path><path d="M30.3619 89.9912H4.36967C3.21076 89.9912 2.09933 89.5337 1.27985 88.7194C0.460381 87.9051 0 86.8007 0 85.6491V49.1111C0.00175951 47.9607 0.462909 46.8579 1.28219 46.0451C2.10147 45.2322 3.21191 44.7756 4.36967 44.7756H25.9834C27.1429 44.7756 28.2549 45.2333 29.0748 46.048C29.8947 46.8627 30.3553 47.9677 30.3553 49.1199L30.3619 89.9912Z" fill="url(#paint4_linear_308_82)"></path></g><defs><linearGradient id="paint0_linear_308_82" x1="39.1083" y1="8.72152" x2="65.6713" y2="82.1676" gradientUnits="userSpaceOnUse"><stop offset="0.01" stop-color="#E4A910"></stop><stop offset="0.32" stop-color="#DFA311"></stop><stop offset="0.63" stop-color="#D08C0C"></stop><stop offset="1" stop-color="#C17F06"></stop></linearGradient><linearGradient id="paint1_linear_308_82" x1="47.0456" y1="89.9912" x2="47.0456" y2="22.3988" gradientUnits="userSpaceOnUse"><stop stop-color="#C17F06"></stop><stop offset="0.22" stop-color="#C17F06" stop-opacity="0.99"></stop><stop offset="0.37" stop-color="#C28006" stop-opacity="0.94"></stop><stop offset="0.5" stop-color="#C38107" stop-opacity="0.86"></stop><stop offset="0.61" stop-color="#C58207" stop-opacity="0.75"></stop><stop offset="0.72" stop-color="#C78408" stop-opacity="0.61"></stop><stop offset="0.82" stop-color="#CA8609" stop-opacity="0.43"></stop><stop offset="0.91" stop-color="#CD890B" stop-opacity="0.22"></stop><stop offset="1" stop-color="#D08C0C" stop-opacity="0"></stop></linearGradient><linearGradient id="paint2_linear_308_82" x1="23.6214" y1="22.0975" x2="43.4344" y2="91.6283" gradientUnits="userSpaceOnUse"><stop stop-color="#F6D54E"></stop><stop offset="0.31" stop-color="#EEC634"></stop><stop offset="0.57" stop-color="#E9B822"></stop><stop offset="1" stop-color="#E9B21C"></stop></linearGradient><linearGradient id="paint3_linear_308_82" x1="25.6669" y1="90" x2="25.6669" y2="44.7756" gradientUnits="userSpaceOnUse"><stop stop-color="#F7DB5E"></stop><stop offset="0.2" stop-color="#F7DA5D" stop-opacity="0.99"></stop><stop offset="0.34" stop-color="#F5D75A" stop-opacity="0.95"></stop><stop offset="0.45" stop-color="#F3D255" stop-opacity="0.89"></stop><stop offset="0.56" stop-color="#EFCC4E" stop-opacity="0.8"></stop><stop offset="0.66" stop-color="#EBC345" stop-opacity="0.69"></stop><stop offset="0.75" stop-color="#E6B839" stop-opacity="0.55"></stop><stop offset="0.84" stop-color="#DFAB2C" stop-opacity="0.39"></stop><stop offset="0.92" stop-color="#D89C1D" stop-opacity="0.21"></stop><stop offset="1" stop-color="#D08C0C" stop-opacity="0"></stop></linearGradient><linearGradient id="paint4_linear_308_82" x1="8.28113" y1="43.4845" x2="22.1935" y2="92.3189" gradientUnits="userSpaceOnUse"><stop stop-color="#F8E386"></stop><stop offset="0.31" stop-color="#F6DC65"></stop><stop offset="0.57" stop-color="#F7DB5E"></stop><stop offset="1" stop-color="#FAD859"></stop></linearGradient><clipPath id="clip0_308_82"><rect width="68" height="90" fill="white"></rect></clipPath></defs></svg> 