<svg class="logo-victrix" xmlns="http://www.w3.org/2000/svg" viewBox="0 0 416.63 131.5" role="img" aria-label="Victrix">
  <g>
    <path class="lv-mark" d="m306.93,95.37c0,1.45-.49,2.56-1.48,3.34s-2.38,1.16-4.19,1.16h-2.32v6.2h-1.05v-15.01h3.67c3.57,0,5.36,1.44,5.36,4.31Zm-7.99,3.59h2.06c1.69,0,2.91-.28,3.66-.84s1.13-1.46,1.13-2.72c0-1.16-.36-2.01-1.07-2.57s-1.81-.84-3.31-.84h-2.48v6.96Z" />
    <path class="lv-mark" d="m320.24,100.47c0,1.82-.44,3.24-1.32,4.27s-2.1,1.53-3.65,1.53c-.98,0-1.84-.24-2.59-.71s-1.32-1.15-1.71-2.03-.6-1.9-.6-3.06c0-1.82.44-3.24,1.32-4.25s2.09-1.52,3.63-1.52,2.74.51,3.61,1.54,1.31,2.44,1.31,4.23Zm-8.81,0c0,1.53.34,2.73,1.01,3.59s1.63,1.29,2.86,1.29,2.18-.43,2.86-1.29,1.01-2.05,1.01-3.59-.34-2.73-1.02-3.58-1.64-1.27-2.87-1.27-2.18.42-2.85,1.27-1,2.04-1,3.59Z" />
    <path class="lv-mark" d="m333.32,106.07l-2.44-7.46c-.16-.51-.36-1.25-.61-2.23h-.06l-.22.76-.46,1.49-2.48,7.44h-1.01l-3.19-11.16h1.09l1.79,6.47c.42,1.6.69,2.78.82,3.53h.06c.4-1.6.7-2.67.88-3.19l2.3-6.81h.92l2.19,6.79c.49,1.61.79,2.67.9,3.19h.06c.05-.44.33-1.64.82-3.57l1.7-6.41h1.03l-3.03,11.16h-1.07Z" />
    <path class="lv-mark" d="m345.18,106.27c-1.62,0-2.89-.5-3.79-1.5s-1.36-2.4-1.36-4.2.44-3.2,1.31-4.28,2.06-1.61,3.54-1.61c1.31,0,2.35.46,3.11,1.38s1.14,2.16,1.14,3.74v.82h-8.04c.01,1.53.37,2.7,1.07,3.51s1.71,1.21,3.01,1.21c.64,0,1.2-.04,1.68-.13s1.09-.28,1.83-.57v.92c-.63.27-1.21.46-1.75.56s-1.12.15-1.77.15Zm-.3-10.68c-1.07,0-1.94.35-2.59,1.06s-1.03,1.73-1.14,3.06h6.9c0-1.29-.28-2.3-.84-3.03s-1.34-1.09-2.33-1.09Z" />
    <path class="lv-mark" d="m357.68,94.69c.47,0,.98.05,1.52.14l-.2.98c-.47-.12-.95-.17-1.45-.17-.95,0-1.73.4-2.34,1.21s-.91,1.83-.91,3.06v6.16h-1.02v-11.16h.86l.1,2.01h.07c.46-.82.95-1.4,1.47-1.73s1.15-.5,1.89-.5Z" />
    <path class="lv-mark" d="m367.04,106.27c-1.62,0-2.89-.5-3.79-1.5s-1.36-2.4-1.36-4.2.44-3.2,1.31-4.28,2.06-1.61,3.54-1.61c1.31,0,2.35.46,3.11,1.38s1.14,2.16,1.14,3.74v.82h-8.04c.01,1.53.37,2.7,1.07,3.51s1.71,1.21,3.01,1.21c.64,0,1.2-.04,1.68-.13s1.09-.28,1.83-.57v.92c-.63.27-1.21.46-1.75.56s-1.12.15-1.77.15Zm-.3-10.68c-1.07,0-1.94.35-2.59,1.06s-1.03,1.73-1.14,3.06h6.9c0-1.29-.28-2.3-.84-3.03s-1.34-1.09-2.33-1.09Z" />
    <path class="lv-mark" d="m379.23,94.69c.81,0,1.51.15,2.09.44s1.12.8,1.58,1.51h.06c-.04-.86-.06-1.71-.06-2.54v-4.01h1.01v15.97h-.67l-.26-1.7h-.08c-.85,1.27-2.07,1.91-3.65,1.91s-2.72-.48-3.53-1.44-1.22-2.35-1.22-4.19c0-1.93.4-3.4,1.21-4.42s1.98-1.53,3.52-1.53Zm0,.92c-1.22,0-2.13.43-2.75,1.28s-.92,2.1-.92,3.73c0,3.16,1.23,4.74,3.69,4.74,1.26,0,2.18-.37,2.77-1.1s.88-1.94.88-3.62v-.17c0-1.72-.29-2.96-.87-3.72s-1.51-1.13-2.81-1.13Z" />
    <path class="lv-mark" d="m399.97,94.69c1.56,0,2.74.49,3.53,1.47s1.19,2.42,1.19,4.31-.42,3.28-1.25,4.29-2,1.51-3.51,1.51c-.79,0-1.51-.16-2.15-.49s-1.14-.79-1.51-1.4h-.09l-.29,1.68h-.64v-15.97h1.02v4.01c0,.6-.01,1.16-.04,1.66l-.03.87h.07c.42-.67.94-1.16,1.53-1.48s1.32-.47,2.16-.47Zm-.02.92c-1.31,0-2.25.38-2.82,1.13s-.85,1.99-.85,3.73v.17c0,1.68.3,2.89.89,3.62s1.51,1.1,2.77,1.1,2.14-.43,2.75-1.28.92-2.06.92-3.64c0-3.22-1.22-4.83-3.65-4.83Z" />
    <path class="lv-mark" d="m406.98,94.91h1.05l2.36,6.26c.72,1.92,1.17,3.22,1.37,3.89h.06c.29-.88.76-2.2,1.41-3.95l2.36-6.2h1.05l-5,12.96c-.4,1.05-.74,1.77-1.02,2.14s-.59.65-.96.83-.81.28-1.33.28c-.39,0-.82-.07-1.3-.22v-.88c.4.11.82.16,1.28.16.35,0,.66-.08.92-.25s.51-.42.72-.76.47-.89.75-1.64.47-1.24.55-1.46l-4.27-11.16Z" />
    <path class="lv-mark" d="m171.64,131.29l-1.5-4.17h-5.74l-1.47,4.17h-2.59l5.61-15.07h2.67l5.61,15.07h-2.61Zm-2.15-6.28l-1.41-4.09c-.1-.27-.24-.7-.43-1.29s-.31-1.02-.37-1.29c-.18.84-.46,1.76-.81,2.76l-1.35,3.91h4.37Z" />
    <path class="lv-mark" d="m179.46,131.29h-2.41v-15.97h2.41v15.97Z" />
    <path class="lv-mark" d="m191.08,131.29l-.48-1.58h-.08c-.55.69-1.1,1.16-1.65,1.41s-1.27.37-2.14.37c-1.12,0-1.99-.3-2.61-.9s-.94-1.45-.94-2.56c0-1.17.43-2.05,1.3-2.65s2.19-.92,3.97-.98l1.96-.06v-.61c0-.73-.17-1.27-.51-1.63s-.86-.54-1.58-.54c-.58,0-1.14.09-1.67.26s-1.05.37-1.54.61l-.78-1.72c.62-.32,1.29-.57,2.02-.73s1.42-.25,2.07-.25c1.44,0,2.53.31,3.27.94s1.1,1.62,1.1,2.97v7.65h-1.72Zm-3.59-1.64c.88,0,1.58-.24,2.11-.73s.8-1.18.8-2.06v-.99l-1.46.06c-1.14.04-1.96.23-2.48.57s-.77.86-.77,1.56c0,.51.15.9.45,1.18s.75.42,1.35.42Z" />
    <path class="lv-mark" d="m207.24,131.29h-2.42v-6.98c0-.88-.18-1.53-.53-1.96s-.91-.65-1.68-.65c-1.02,0-1.77.3-2.24.9s-.71,1.61-.71,3.03v5.66h-2.41v-11.35h1.89l.34,1.49h.12c.34-.54.83-.96,1.46-1.25s1.33-.44,2.09-.44c2.72,0,4.09,1.39,4.09,4.16v7.4Z" />
    <path class="lv-mark" d="m227.76,131.29l-1.5-4.17h-5.74l-1.47,4.17h-2.59l5.61-15.07h2.67l5.61,15.07h-2.61Zm-2.15-6.28l-1.41-4.09c-.1-.27-.24-.7-.43-1.29s-.31-1.02-.37-1.29c-.18.84-.46,1.76-.81,2.76l-1.35,3.91h4.37Z" />
    <path class="lv-mark" d="m235.58,131.29h-2.41v-15.97h2.41v15.97Z" />
    <path class="lv-mark" d="m242.51,131.29h-2.41v-15.97h2.41v15.97Z" />
    <path class="lv-mark" d="m256.6,131.29h-2.42v-7c0-.87-.16-1.52-.49-1.95s-.84-.64-1.54-.64c-.93,0-1.61.3-2.05.91s-.65,1.61-.65,3.02v5.66h-2.41v-11.35h1.89l.34,1.49h.12c.31-.54.77-.96,1.37-1.25s1.26-.44,1.98-.44c1.75,0,2.9.6,3.47,1.79h.16c.34-.56.81-1,1.42-1.31s1.31-.47,2.09-.47c1.35,0,2.34.34,2.96,1.03s.93,1.73.93,3.13v7.4h-2.41v-7c0-.87-.17-1.52-.5-1.95s-.85-.64-1.54-.64c-.94,0-1.62.29-2.06.88s-.65,1.48-.65,2.69v6.02Z" />
    <path class="lv-mark" d="m275.31,131.29l-.48-1.58h-.08c-.55.69-1.1,1.16-1.65,1.41s-1.27.37-2.14.37c-1.12,0-1.99-.3-2.61-.9s-.94-1.45-.94-2.56c0-1.17.43-2.05,1.3-2.65s2.19-.92,3.97-.98l1.96-.06v-.61c0-.73-.17-1.27-.51-1.63s-.86-.54-1.58-.54c-.58,0-1.14.09-1.67.26s-1.05.37-1.54.61l-.78-1.72c.62-.32,1.29-.57,2.02-.73s1.42-.25,2.07-.25c1.44,0,2.53.31,3.27.94s1.1,1.62,1.1,2.97v7.65h-1.72Zm-3.59-1.64c.88,0,1.58-.24,2.11-.73s.8-1.18.8-2.06v-.99l-1.46.06c-1.14.04-1.96.23-2.48.57s-.77.86-.77,1.56c0,.51.15.9.45,1.18s.75.42,1.35.42Z" />
    <path class="lv-mark" d="m291.46,131.29h-2.42v-6.98c0-.88-.18-1.53-.53-1.96s-.91-.65-1.68-.65c-1.02,0-1.77.3-2.24.9s-.71,1.61-.71,3.03v5.66h-2.41v-11.35h1.89l.34,1.49h.12c.34-.54.83-.96,1.46-1.25s1.33-.44,2.09-.44c2.72,0,4.09,1.39,4.09,4.16v7.4Z" />
    <path class="lv-mark" d="m311.99,131.29l-1.5-4.17h-5.74l-1.47,4.17h-2.59l5.61-15.07h2.67l5.61,15.07h-2.61Zm-2.15-6.28l-1.41-4.09c-.1-.27-.24-.7-.43-1.29s-.31-1.02-.37-1.29c-.18.84-.46,1.76-.81,2.76l-1.35,3.91h4.37Z" />
    <path class="lv-mark" d="m325.02,128.06c0,1.11-.4,1.96-1.21,2.55s-1.96.89-3.47.89-2.73-.23-3.64-.69v-2.08c1.33.62,2.58.92,3.73.92,1.48,0,2.23-.45,2.23-1.34,0-.29-.08-.53-.25-.72s-.43-.39-.81-.6-.9-.44-1.57-.7c-1.31-.51-2.19-1.01-2.65-1.52s-.69-1.16-.69-1.97c0-.97.39-1.73,1.18-2.26s1.85-.81,3.2-.81,2.6.27,3.79.81l-.78,1.82c-1.22-.51-2.25-.76-3.09-.76-1.27,0-1.91.36-1.91,1.09,0,.36.17.66.5.9s1.06.59,2.17,1.02c.94.36,1.62.69,2.04,1s.74.65.94,1.04.31.86.31,1.41Z" />
    <path class="lv-mark" d="m336.32,128.06c0,1.11-.4,1.96-1.21,2.55s-1.96.89-3.47.89-2.73-.23-3.64-.69v-2.08c1.33.62,2.58.92,3.73.92,1.48,0,2.23-.45,2.23-1.34,0-.29-.08-.53-.25-.72s-.43-.39-.81-.6-.9-.44-1.57-.7c-1.31-.51-2.19-1.01-2.65-1.52s-.69-1.16-.69-1.97c0-.97.39-1.73,1.18-2.26s1.85-.81,3.2-.81,2.6.27,3.79.81l-.78,1.82c-1.22-.51-2.25-.76-3.09-.76-1.27,0-1.91.36-1.91,1.09,0,.36.17.66.5.9s1.06.59,2.17,1.02c.94.36,1.62.69,2.04,1s.74.65.94,1.04.31.86.31,1.41Z" />
    <path class="lv-mark" d="m350.07,125.6c0,1.85-.48,3.3-1.43,4.34s-2.28,1.56-3.97,1.56c-1.06,0-2-.24-2.81-.72s-1.44-1.17-1.88-2.06-.66-1.94-.66-3.12c0-1.84.47-3.28,1.42-4.31s2.28-1.55,3.99-1.55,2.94.53,3.9,1.59,1.44,2.48,1.44,4.28Zm-8.26,0c0,2.62.97,3.93,2.9,3.93s2.87-1.31,2.87-3.93-.96-3.89-2.89-3.89c-1.01,0-1.75.34-2.2,1.01s-.68,1.63-.68,2.88Z" />
    <path class="lv-mark" d="m358.5,131.5c-1.72,0-3.02-.5-3.92-1.5s-1.34-2.44-1.34-4.32.47-3.38,1.4-4.4,2.28-1.54,4.05-1.54c1.2,0,2.28.22,3.23.67l-.73,1.94c-1.02-.4-1.86-.6-2.53-.6-1.96,0-2.95,1.3-2.95,3.91,0,1.27.24,2.23.73,2.87s1.21.96,2.15.96c1.07,0,2.09-.27,3.05-.8v2.1c-.43.25-.89.43-1.38.54s-1.08.16-1.78.16Z" />
    <path class="lv-mark" d="m365.25,116.93c0-.43.12-.76.35-1s.57-.35,1.01-.35.75.12.99.35.35.56.35,1-.12.73-.35.97-.57.35-.99.35-.77-.12-1.01-.35-.35-.56-.35-.97Zm2.56,14.36h-2.41v-11.35h2.41v11.35Z" />
    <path class="lv-mark" d="m379.44,131.29l-.48-1.58h-.08c-.55.69-1.1,1.16-1.65,1.41s-1.27.37-2.14.37c-1.12,0-1.99-.3-2.61-.9s-.94-1.45-.94-2.56c0-1.17.43-2.05,1.3-2.65s2.19-.92,3.97-.98l1.96-.06v-.61c0-.73-.17-1.27-.51-1.63s-.86-.54-1.58-.54c-.58,0-1.14.09-1.67.26s-1.05.37-1.54.61l-.78-1.72c.62-.32,1.29-.57,2.02-.73s1.42-.25,2.07-.25c1.44,0,2.53.31,3.27.94s1.1,1.62,1.1,2.97v7.65h-1.72Zm-3.59-1.64c.88,0,1.58-.24,2.11-.73s.8-1.18.8-2.06v-.99l-1.46.06c-1.14.04-1.96.23-2.48.57s-.77.86-.77,1.56c0,.51.15.9.45,1.18s.75.42,1.35.42Z" />
    <path class="lv-mark" d="m389.83,129.55c.59,0,1.18-.09,1.77-.28v1.82c-.27.12-.61.21-1.03.29s-.86.12-1.31.12c-2.29,0-3.43-1.2-3.43-3.61v-6.12h-1.55v-1.07l1.66-.88.82-2.4h1.49v2.53h3.23v1.83h-3.23v6.08c0,.58.15,1.01.44,1.29s.67.42,1.14.42Z" />
    <path class="lv-mark" d="m399.89,131.5c-1.77,0-3.15-.51-4.14-1.54s-1.49-2.45-1.49-4.25.46-3.31,1.39-4.37,2.19-1.59,3.81-1.59c1.5,0,2.68.46,3.55,1.37s1.3,2.16,1.3,3.76v1.3h-7.57c.03,1.1.33,1.95.89,2.54s1.35.89,2.37.89c.67,0,1.3-.06,1.87-.19s1.2-.34,1.86-.63v1.96c-.59.28-1.18.48-1.79.6s-1.29.17-2.06.17Zm-.44-9.94c-.77,0-1.38.24-1.84.73s-.74,1.19-.83,2.12h5.15c-.01-.94-.24-1.65-.68-2.13s-1.04-.72-1.81-.72Z" />
    <path class="lv-mark" d="m415.75,128.06c0,1.11-.4,1.96-1.21,2.55s-1.96.89-3.47.89-2.73-.23-3.64-.69v-2.08c1.33.62,2.58.92,3.73.92,1.48,0,2.23-.45,2.23-1.34,0-.29-.08-.53-.25-.72s-.43-.39-.81-.6-.9-.44-1.57-.7c-1.31-.51-2.19-1.01-2.65-1.52s-.69-1.16-.69-1.97c0-.97.39-1.73,1.18-2.26s1.85-.81,3.2-.81,2.6.27,3.79.81l-.78,1.82c-1.22-.51-2.25-.76-3.09-.76-1.27,0-1.91.36-1.91,1.09,0,.36.17.66.5.9s1.06.59,2.17,1.02c.94.36,1.62.69,2.04,1s.74.65.94,1.04.31.86.31,1.41Z" />
  </g>
  <g>
    <path class="lv-mark" d="m393.98,41.29l-8.95,12.34,13.74,19.05h17.85l-22.65-31.38h0Zm-60.51,31.1V1.22h-15.66v71.17h15.66Zm-58.84-34.65c0-24.58,2.13-22.36,30.19-22.39V1.36s-22.08,0-34.33,0c-7.65,0-12.02,5.6-12.11,10.83v60.08h16.25v-34.53h0ZM71.37,1.22h-16.88l-18.61,50.13L17.28,1.22H0l28.77,71.68h13.83L71.37,1.22h0Zm27.35,71.17V1.22h-15.66v71.17h15.66Zm80.32-11.49l-9.96-10.07c-2.78,2.58-5.57,4.61-8.39,6.1-2.81,1.49-6.25,2.24-10.32,2.24-3.05,0-5.85-.59-8.39-1.78-2.54-1.19-4.71-2.79-6.51-4.83-1.8-2.03-3.2-4.41-4.22-7.12-1.02-2.71-1.52-5.59-1.52-8.64v-.2c0-3.05.51-5.91,1.52-8.59,1.02-2.68,2.44-5.03,4.27-7.07,1.83-2.03,4.02-3.63,6.56-4.78,2.54-1.15,5.3-1.73,8.29-1.73,3.59,0,6.83.71,9.71,2.13,2.88,1.42,5.71,3.39,8.49,5.9l9.97-11.49c-1.63-1.63-3.39-3.12-5.29-4.47-1.9-1.35-3.97-2.51-6.2-3.46-2.24-.95-4.73-1.69-7.47-2.24-2.75-.54-5.78-.81-9.1-.81-5.49,0-10.51.96-15.05,2.9-4.54,1.93-8.44,4.57-11.69,7.93-3.25,3.35-5.8,7.25-7.62,11.69-1.83,4.44-2.75,9.2-2.75,14.28v.2c0,5.08.92,9.86,2.75,14.34,1.83,4.47,4.37,8.35,7.62,11.64,3.25,3.29,7.12,5.88,11.59,7.78,4.47,1.9,9.32,2.85,14.54,2.85,3.46,0,6.57-.29,9.35-.86,2.78-.58,5.34-1.43,7.68-2.54,2.34-1.12,4.49-2.46,6.46-4.02,1.97-1.56,3.86-3.32,5.69-5.29h0ZM245.44,15.66V1.22h-58.97v14.44h21.65v56.73h15.66V15.66h21.66Zm139.85,3.27l8.7,12.05,21.55-29.71h-17.44l-12.81,17.66Z" />
    <polygon class="lv-tag" points="377.84 18.92 365.11 1.27 347.26 1.27 368.9 31.26 372.61 36.41 368.88 41.56 346.31 72.67 363.76 72.67 377.58 53.61 381.31 48.47 390.26 36.13 381.56 24.08 377.84 18.92" />
  </g>
</svg>